<svg width="41" height="41" viewBox="0 0 41 41" fill="none" xmlns="http://www.w3.org/2000/svg">
<path d="M40.8324 20.2869C40.8324 24.0631 40.8324 27.8392 40.8324 31.6153C40.8324 32.7583 40.7487 33.89 40.5143 35.0161C40.1516 36.7641 39.1918 38.1311 37.8413 39.2516C36.7531 40.1537 35.4919 40.6411 34.1024 40.8204C33.1258 40.9436 32.138 41.0052 31.1503 40.9996C23.8231 40.9996 16.496 40.9996 9.16878 40.994C8.08059 40.9996 6.99798 40.8932 5.93211 40.6747C4.68766 40.4114 3.62179 39.8231 2.68427 38.9771C1.68536 38.0751 0.920835 37.0106 0.50788 35.7108C0.2735 34.9657 0.156309 34.2037 0.0949238 33.4306C-0.00552484 32.2204 5.58095e-05 31.0103 5.58095e-05 29.8001C5.58095e-05 22.9089 5.615e-05 16.0178 0.00563663 9.12659C0.00563663 7.84921 0.122827 6.57742 0.479977 5.34486C0.736679 4.46525 1.19428 3.6977 1.76349 2.99178C2.6173 1.93849 3.64969 1.12612 4.91646 0.627488C5.63634 0.34736 6.38971 0.207295 7.15423 0.128859C8.25359 0.0112053 9.35294 0 10.4523 0C17.3442 0 24.2305 0 31.1168 0C31.9148 0 32.7128 0.00560262 33.5053 0.0952438C35.012 0.268924 36.4462 0.649899 37.6739 1.59113C39.1639 2.73406 40.146 4.21874 40.5311 6.07879C40.732 7.04804 40.8324 8.0397 40.8324 9.02575C40.8324 12.7851 40.8324 16.5332 40.8324 20.2869Z" fill="#2B6AFF"/>
<path d="M25.0565 18.7966C24.8332 19.1439 24.61 19.4969 24.3924 19.8442C23.5609 21.1608 22.7629 22.4943 21.9537 23.8221C21.697 24.2423 21.3901 24.6232 20.9883 24.9202C19.7606 25.8278 18.4938 24.909 18.3487 23.8333C18.2483 23.1386 18.1869 22.4382 18.1757 21.7379C18.1701 20.9255 18.1757 20.1132 18.1757 19.3064C18.1757 19.1887 18.1646 19.0711 18.159 18.9534C18.1032 18.9534 18.0976 18.9983 18.0809 19.0207C16.5518 21.5586 14.9446 24.0518 13.3821 26.5673C13.2872 26.7186 13.1979 26.8755 13.0975 27.0267C13.0528 27.094 13.0528 27.1388 13.1142 27.206C14.6935 28.8476 16.5685 29.9569 18.8342 30.3042C21.5854 30.73 24.0855 30.1082 26.3232 28.4386C26.5967 28.2369 26.8422 28.0016 27.1101 27.7887C27.4393 27.531 27.8021 27.3741 28.2373 27.4749C28.2987 27.4862 28.3489 27.5142 28.3936 27.5534C28.494 27.6542 28.5945 27.7439 28.7061 27.8335C29.0409 28.08 29.0577 28.4106 28.9684 28.7747C28.8568 29.2061 28.561 29.5031 28.2317 29.772C26.7139 31.0382 25.0062 31.9402 23.0642 32.3492C19.3476 33.1391 15.9603 32.3884 12.9747 30.0297C10.6979 28.2313 9.25254 25.8782 8.61636 23.0321C8.28712 21.5586 8.25363 20.0683 8.47685 18.5725C9.15767 13.9223 12.4613 10.3983 16.1612 8.98645C17.3554 8.52704 18.611 8.27493 19.8889 8.23571C21.2841 8.19089 22.6513 8.31414 23.9906 8.74554C25.7763 9.3114 27.4058 10.2862 28.7507 11.5916C30.609 13.3957 31.7809 15.5751 32.272 18.1243C32.512 19.368 32.5678 20.623 32.3669 21.8724C32.1269 23.3795 30.9104 24.8754 29.2641 25.1891C27.6346 25.5028 26.1168 24.6569 25.4583 23.0601C25.1736 22.371 25.0955 21.6483 25.0955 20.9143C25.0955 20.2364 25.0955 19.5641 25.0955 18.8862C25.0955 18.8638 25.0955 18.8414 25.0899 18.819L25.0565 18.7966Z" fill="#FEFEFE"/>
<path d="M20.38 22.063V21.0489C20.38 19.6539 20.3855 18.2532 20.3688 16.8582C20.3632 16.2923 20.2349 15.7545 19.8219 15.3287C19.448 14.9533 18.8844 14.8469 18.3989 15.0542C18.0641 15.1998 17.7795 15.4407 17.573 15.7489C17.0819 16.4492 16.6689 17.2 16.2058 17.9171C14.7102 20.2085 13.3151 22.5616 11.8418 24.8643C11.7246 25.0492 11.6242 25.0548 11.5237 24.8475C11.401 24.601 11.2949 24.3488 11.1945 24.0911C10.7648 23.0042 10.5416 21.8501 10.5248 20.6792C10.4914 18.2364 11.1722 16.0234 12.7068 14.1185C14.2135 12.2473 16.15 11.0315 18.5161 10.5945C21.9369 9.96703 24.9057 10.9251 27.3779 13.351C28.9181 14.8581 29.811 16.7293 30.1681 18.8639C30.3021 19.6483 30.33 20.4494 30.2518 21.2394C30.1905 21.8221 29.9561 22.3319 29.4929 22.7073C29.1078 23.0154 28.6726 23.1891 28.1871 22.993C27.6737 22.7913 27.4114 22.3711 27.3221 21.8333C27.1937 21.0489 27.2105 20.259 27.2272 19.469C27.2384 18.7967 27.283 18.1132 27.1379 17.4465C26.9649 16.6733 26.5185 16.1243 25.7205 15.9226C25.3354 15.8273 24.9783 15.9562 24.6435 16.1355C24.1356 16.41 23.7506 16.8246 23.4269 17.2896C22.8465 18.1132 22.3443 18.9928 21.8086 19.85C21.3621 20.5671 20.9157 21.2842 20.4693 22.0014C20.4525 22.0238 20.4358 22.0518 20.419 22.0742L20.38 22.063Z" fill="#2B6AFF"/>
</svg>
