<svg width="41" height="41" viewBox="0 0 41 41" fill="none" xmlns="http://www.w3.org/2000/svg">
<path d="M40.8324 20.2869C40.8324 24.0631 40.8324 27.8392 40.8324 31.6153C40.8324 32.7583 40.7487 33.89 40.5143 35.0161C40.1516 36.7641 39.1918 38.1311 37.8413 39.2516C36.7531 40.1537 35.4919 40.6411 34.1024 40.8204C33.1258 40.9436 32.138 41.0052 31.1503 40.9996C23.8231 40.9996 16.496 40.9996 9.16878 40.994C8.08059 40.9996 6.99798 40.8932 5.93211 40.6747C4.68766 40.4114 3.62179 39.8231 2.68427 38.9771C1.68536 38.0751 0.920835 37.0106 0.50788 35.7108C0.2735 34.9657 0.156309 34.2037 0.0949238 33.4306C-0.00552484 32.2204 5.58095e-05 31.0103 5.58095e-05 29.8001C5.58095e-05 22.9089 5.615e-05 16.0178 0.00563663 9.12659C0.00563663 7.84921 0.122827 6.57742 0.479977 5.34486C0.736679 4.46525 1.19428 3.6977 1.76349 2.99178C2.6173 1.93849 3.64969 1.12612 4.91646 0.627488C5.63634 0.34736 6.38971 0.207295 7.15423 0.128859C8.25359 0.0112053 9.35294 0 10.4523 0C17.3442 0 24.2305 0 31.1168 0C31.9148 0 32.7128 0.00560262 33.5053 0.0952438C35.012 0.268924 36.4462 0.649899 37.6739 1.59113C39.1639 2.73406 40.146 4.21874 40.5311 6.07879C40.732 7.04804 40.8324 8.0397 40.8324 9.02575C40.8324 12.7851 40.8324 16.5332 40.8324 20.2869Z" fill="#F6F3F9"/>
<path d="M28.3122 22.791C28.2299 22.7158 28.1092 22.701 28.0108 22.753C25.1958 24.246 21.7412 23.2529 20.1472 20.4919C18.5532 17.731 19.4201 14.2431 22.1208 12.5513C22.2152 12.4923 22.2623 12.3801 22.2383 12.2715C22.2144 12.1627 22.1248 12.0806 22.0144 12.0665C20.2645 11.8416 18.5317 12.1895 17.0023 13.0728C15.1523 14.1403 13.8289 15.8652 13.276 17.9287C12.7231 19.9922 13.0068 22.1474 14.0751 23.9976C15.1432 25.8478 16.8678 27.1712 18.9314 27.7241C19.6204 27.9086 20.3197 28 21.0144 28C22.4002 28 23.7681 27.6366 25.0003 26.9251C26.5294 26.0423 27.6974 24.7153 28.3776 23.0875C28.4206 22.9848 28.3943 22.8662 28.3122 22.791Z" fill="#180C26"/>
</svg>
