<svg width="41" height="41" viewBox="0 0 41 41" fill="none" xmlns="http://www.w3.org/2000/svg">
<path d="M40.8324 20.2869C40.8324 24.0631 40.8324 27.8392 40.8324 31.6153C40.8324 32.7583 40.7487 33.89 40.5143 35.0161C40.1516 36.7641 39.1918 38.1311 37.8413 39.2516C36.7531 40.1537 35.4919 40.6411 34.1024 40.8204C33.1258 40.9436 32.138 41.0052 31.1503 40.9996C23.8231 40.9996 16.496 40.9996 9.16878 40.994C8.08059 40.9996 6.99798 40.8932 5.93211 40.6747C4.68766 40.4114 3.62179 39.8231 2.68427 38.9771C1.68536 38.0751 0.920835 37.0106 0.50788 35.7108C0.2735 34.9657 0.156309 34.2037 0.0949238 33.4306C-0.00552484 32.2204 5.58095e-05 31.0103 5.58095e-05 29.8001C5.58095e-05 22.9089 5.615e-05 16.0178 0.00563663 9.12659C0.00563663 7.84921 0.122827 6.57742 0.479977 5.34486C0.736679 4.46525 1.19428 3.6977 1.76349 2.99178C2.6173 1.93849 3.64969 1.12612 4.91646 0.627488C5.63634 0.34736 6.38971 0.207295 7.15423 0.128859C8.25359 0.0112053 9.35294 0 10.4523 0C17.3442 0 24.2305 0 31.1168 0C31.9148 0 32.7128 0.00560262 33.5053 0.0952438C35.012 0.268924 36.4462 0.649899 37.6739 1.59113C39.1639 2.73406 40.146 4.21874 40.5311 6.07879C40.732 7.04804 40.8324 8.0397 40.8324 9.02575C40.8324 12.7851 40.8324 16.5332 40.8324 20.2869Z" fill="#281A37"/>
<g clip-path="url(#clip0_3_154)">
<path d="M20.5 24.7978C18.1303 24.7978 16.2023 22.8698 16.2023 20.5001C16.2023 18.1303 18.1303 16.2024 20.5 16.2024C22.8696 16.2024 24.7977 18.1303 24.7977 20.5001C24.7977 21.2755 24.5889 22.0353 24.1939 22.6978C23.4218 23.993 22.0064 24.7978 20.5 24.7978Z" fill="#F5EAF9"/>
<path d="M20.5 15.5544C20.3188 15.5544 20.1718 15.4074 20.1718 15.2262V13.4433C20.1718 13.2622 20.3188 13.1151 20.5 13.1151C20.6812 13.1151 20.8282 13.2622 20.8282 13.4433V15.2262C20.8282 15.4074 20.6812 15.5544 20.5 15.5544Z" fill="#F5EAF9"/>
<path d="M20.5 27.885C20.3188 27.885 20.1718 27.7379 20.1718 27.5567V25.774C20.1718 25.5928 20.3188 25.4458 20.5 25.4458C20.6812 25.4458 20.8282 25.5928 20.8282 25.774V27.5567C20.8282 27.7379 20.6812 27.885 20.5 27.885Z" fill="#F5EAF9"/>
<path d="M15.2262 20.8283H13.4433C13.2621 20.8283 13.1151 20.6813 13.1151 20.5001C13.1151 20.3189 13.2621 20.1719 13.4433 20.1719H15.2262C15.4074 20.1719 15.5544 20.3189 15.5544 20.5001C15.5544 20.6813 15.4074 20.8283 15.2262 20.8283Z" fill="#F5EAF9"/>
<path d="M27.5567 20.8283H25.774C25.5928 20.8283 25.4458 20.6813 25.4458 20.5001C25.4458 20.3189 25.5928 20.1719 25.774 20.1719H27.5567C27.7379 20.1719 27.8849 20.3189 27.8849 20.5001C27.8849 20.6813 27.7379 20.8283 27.5567 20.8283Z" fill="#F5EAF9"/>
<path d="M24.2292 17.0991C24.1452 17.0991 24.0613 17.0671 23.9972 17.0029C23.869 16.8748 23.869 16.667 23.9972 16.5388L25.2579 15.2781C25.386 15.15 25.5938 15.15 25.722 15.2781C25.8501 15.4063 25.8501 15.6141 25.722 15.7422L24.4613 17.0029C24.3971 17.0671 24.3131 17.0991 24.2292 17.0991Z" fill="#F5EAF9"/>
<path d="M15.5101 25.818C15.4261 25.818 15.342 25.786 15.278 25.7218C15.1499 25.5936 15.1499 25.3859 15.278 25.2577L16.5387 23.997C16.6669 23.8688 16.8748 23.8688 17.0028 23.997C17.131 24.1252 17.131 24.3329 17.0028 24.4611L15.7421 25.7218C15.6781 25.786 15.5941 25.818 15.5101 25.818Z" fill="#F5EAF9"/>
<path d="M16.7708 17.0991C16.6867 17.0991 16.6027 17.0671 16.5387 17.0029L15.278 15.7422C15.1499 15.6141 15.1499 15.4063 15.278 15.2781C15.406 15.15 15.6141 15.15 15.7421 15.2781L17.0028 16.5388C17.131 16.667 17.131 16.8748 17.0028 17.0029C16.9388 17.0671 16.8548 17.0991 16.7708 17.0991Z" fill="#F5EAF9"/>
<path d="M25.4897 25.818C25.4057 25.818 25.3219 25.786 25.2577 25.7218L23.997 24.4611C23.8688 24.3329 23.8688 24.1252 23.997 23.997C24.1252 23.8688 24.3329 23.8688 24.4611 23.997L25.7218 25.2577C25.85 25.3859 25.85 25.5936 25.7218 25.7218C25.6578 25.786 25.5738 25.818 25.4897 25.818Z" fill="#F5EAF9"/>
<path d="M18.4819 15.956C18.3531 15.956 18.2309 15.8797 18.1785 15.7533L17.4963 14.1062C17.4269 13.9386 17.5065 13.7468 17.6739 13.6774C17.8416 13.6081 18.0333 13.6875 18.1027 13.8549L18.7851 15.5021C18.8545 15.6697 18.7749 15.8615 18.6075 15.9309C18.5663 15.9478 18.5238 15.956 18.4819 15.956Z" fill="#F5EAF9"/>
<path d="M23.2006 27.348C23.0718 27.348 22.9497 27.2715 22.8971 27.1453L22.2149 25.4981C22.1455 25.3306 22.2251 25.1387 22.3925 25.0693C22.5604 25.0001 22.7519 25.0796 22.8213 25.2469L23.5035 26.8939C23.5729 27.0614 23.4934 27.2533 23.326 27.3227C23.2849 27.3398 23.2424 27.348 23.2006 27.348Z" fill="#F5EAF9"/>
<path d="M13.9806 23.5288C13.8518 23.5288 13.7295 23.4524 13.6771 23.3262C13.6077 23.1586 13.6873 22.9668 13.8549 22.8973L15.502 22.2151C15.6696 22.1457 15.8614 22.2255 15.9309 22.3927C16.0003 22.5603 15.9207 22.7521 15.7531 22.8215L14.106 23.5037C14.0649 23.5206 14.0224 23.5288 13.9806 23.5288Z" fill="#F5EAF9"/>
<path d="M25.3726 18.8102C25.2437 18.8102 25.1216 18.7339 25.0691 18.6075C24.9997 18.44 25.0793 18.2481 25.2467 18.1787L26.8937 17.4963C27.0613 17.4271 27.2529 17.5065 27.3225 17.6739C27.3919 17.8415 27.3123 18.0333 27.145 18.1027L25.4981 18.7851C25.4571 18.802 25.4144 18.8102 25.3726 18.8102Z" fill="#F5EAF9"/>
<path d="M22.518 15.956C22.4762 15.956 22.4337 15.948 22.3925 15.9309C22.2249 15.8616 22.1455 15.6696 22.2149 15.5021L22.8971 13.8549C22.9666 13.6874 23.1577 13.6078 23.326 13.6772C23.4935 13.7464 23.5729 13.9384 23.5035 14.106L22.8213 15.7532C22.769 15.8797 22.6469 15.956 22.518 15.956Z" fill="#F5EAF9"/>
<path d="M17.7992 27.3479C17.7574 27.3479 17.7149 27.3397 17.6737 27.3228C17.5061 27.2534 17.4267 27.0614 17.4961 26.894L18.1785 25.247C18.2478 25.0796 18.4396 25.0002 18.6073 25.0695C18.7749 25.1389 18.8543 25.3309 18.7849 25.4983L18.1025 27.1453C18.0503 27.2715 17.9282 27.3479 17.7992 27.3479Z" fill="#F5EAF9"/>
<path d="M15.6274 18.8102C15.5856 18.8102 15.5431 18.8022 15.5019 18.7851L13.8547 18.1027C13.6873 18.0333 13.6077 17.8413 13.6772 17.6739C13.7464 17.5065 13.9381 17.4268 14.106 17.4963L15.7531 18.1787C15.9205 18.2481 16.0001 18.4401 15.9307 18.6075C15.8785 18.7339 15.7563 18.8102 15.6274 18.8102Z" fill="#F5EAF9"/>
<path d="M27.0194 23.5288C26.9776 23.5288 26.9351 23.5206 26.8939 23.5037L25.2469 22.8215C25.0793 22.7521 24.9999 22.5601 25.0693 22.3927C25.1387 22.2253 25.3301 22.1457 25.4981 22.2152L27.1451 22.8974C27.3127 22.9668 27.3921 23.1588 27.3227 23.3262C27.2703 23.4524 27.1482 23.5288 27.0194 23.5288Z" fill="#F5EAF9"/>
</g>
<defs>
<clipPath id="clip0_3_154">
<rect width="15" height="15" fill="white" transform="translate(13 13)"/>
</clipPath>
</defs>
</svg>
